<svg xmlns="http://www.w3.org/2000/svg" width="512" height="512" viewBox="0 0 512 512">
  <defs>
    <linearGradient id="bg" x1="0" y1="0" x2="512" y2="512">
      <stop offset="0%" stop-color="#1F2833"/>
      <stop offset="100%" stop-color="#0B0C10"/>
    </linearGradient>
  </defs>
  <rect width="512" height="512" rx="96" fill="url(#bg)"/>
  <g transform="translate(256,256)">
    <!-- Caja registradora body -->
    <rect x="-128" y="-32" width="256" height="150" rx="20" fill="#C5A059"/>
    <!-- Pantalla -->
    <rect x="-96" y="-64" width="192" height="36" rx="10" fill="#F3F4F6" opacity="0.9"/>
    <text x="-72" y="-40" font-family="monospace" font-size="20" font-weight="bold" fill="#1F2833">Gs. 0</text>
    <!-- Teclas fila 1 -->
    <circle cx="-74" cy="22" r="14" fill="#F3F4F6" opacity="0.7"/>
    <circle cx="-32" cy="22" r="14" fill="#F3F4F6" opacity="0.7"/>
    <circle cx="10" cy="22" r="14" fill="#F3F4F6" opacity="0.7"/>
    <circle cx="52" cy="22" r="14" fill="#F3F4F6" opacity="0.7"/>
    <!-- Teclas fila 2 -->
    <circle cx="-74" cy="66" r="14" fill="#F3F4F6" opacity="0.7"/>
    <circle cx="-32" cy="66" r="14" fill="#F3F4F6" opacity="0.7"/>
    <circle cx="10" cy="66" r="14" fill="#F3F4F6" opacity="0.7"/>
    <circle cx="52" cy="66" r="14" fill="#F3F4F6" opacity="0.7"/>
    <!-- Ranura monedas -->
    <rect x="82" y="2" width="36" height="80" rx="8" fill="#8B6914"/>
    <rect x="92" y="14" width="16" height="56" rx="4" fill="#C5A059" opacity="0.5"/>
    <!-- Moneda -->
    <circle cx="64" cy="-20" r="10" fill="#F3F4F6" opacity="0.9"/>
    <!-- Línea decorativa abajo -->
    <line x1="-80" y1="108" x2="80" y2="108" stroke="#8B6914" stroke-width="3" stroke-linecap="round"/>
  </g>
</svg>
